<svg xmlns="http://www.w3.org/2000/svg" viewBox="0 0 900 520" role="img" aria-labelledby="title desc">
  <title id="title">荒廢診所門口</title>
  <desc id="desc">一扇帶有舊世界電子鎖的荒廢診所門，在廢土塵霧中閃著微弱燈光。</desc>
  <defs>
    <linearGradient id="sky" x1="0" y1="0" x2="0" y2="1">
      <stop offset="0" stop-color="#24251d"/>
      <stop offset="1" stop-color="#10120f"/>
    </linearGradient>
    <linearGradient id="rust" x1="0" y1="0" x2="1" y2="1">
      <stop offset="0" stop-color="#8d563d"/>
      <stop offset="1" stop-color="#32271f"/>
    </linearGradient>
  </defs>
  <rect width="900" height="520" fill="url(#sky)"/>
  <path d="M0 390 C150 350 260 410 400 370 C560 326 690 360 900 318 L900 520 L0 520 Z" fill="#171a15"/>
  <rect x="145" y="130" width="610" height="265" rx="8" fill="#242720" stroke="#6d644e" stroke-width="4"/>
  <rect x="190" y="170" width="260" height="225" fill="#151713" stroke="#58503e" stroke-width="3"/>
  <rect x="475" y="168" width="220" height="227" fill="url(#rust)" stroke="#68523d" stroke-width="3"/>
  <rect x="510" y="205" width="88" height="120" rx="8" fill="#11130f" stroke="#98d8c9" stroke-width="3"/>
  <circle cx="640" cy="285" r="13" fill="#e1b84d"/>
  <path d="M220 230 L420 205 M220 275 L425 250 M220 320 L405 312" stroke="#4b4639" stroke-width="7" stroke-linecap="round"/>
  <path d="M130 402 L778 402" stroke="#d06f45" stroke-width="5" stroke-dasharray="22 14"/>
  <circle cx="556" cy="266" r="9" fill="#64c7bb"/>
  <circle cx="556" cy="266" r="28" fill="none" stroke="#64c7bb" stroke-width="3" opacity="0.35"/>
  <path d="M94 145 L145 130 L145 395 L94 412 Z" fill="#161914"/>
  <path d="M755 132 L816 150 L815 396 L755 395 Z" fill="#161914"/>
  <g opacity="0.35" stroke="#e7dcc0" stroke-width="2">
    <path d="M70 450 H835"/>
    <path d="M116 470 H780"/>
    <path d="M178 490 H720"/>
  </g>
</svg>
